<?xml version="1.0" encoding="utf-8"?>
<!-- Generator: Adobe Illustrator 28.0.0, SVG Export Plug-In . SVG Version: 6.00 Build 0)  -->
<svg version="1.1" id="Layer_1" xmlns="http://www.w3.org/2000/svg" xmlns:xlink="http://www.w3.org/1999/xlink" x="0px" y="0px"
	 viewBox="0 0 50 50" style="enable-background:new 0 0 50 50;" xml:space="preserve">
<style type="text/css">
	.st0{fill:#FFFFFF;}
</style>
<path class="st0" d="M8,3C4.5,3,2,5.1,2,7.9c0,2.9,2.6,5,6,5c3.5,0,6-2.1,6-5.1C13.8,5,11.4,3,8,3z M3,15c-0.5,0-1,0.4-1,1v29
	c0,0.5,0.5,1,1,1h10c0.6,0,1-0.5,1-1V16c0-0.6-0.4-1-1-1H3z M18,15c-0.5,0-1,0.4-1,1v29c0,0.5,0.5,1,1,1h9c0.6,0,1-0.4,1-1V30v-0.2
	v-0.2c0-2.4,1.8-4.3,4.1-4.5c0.1,0,0.2,0,0.4,0s0.2,0,0.4,0c2.3,0.2,4.1,2.1,4.1,4.5V45c0,0.6,0.4,1,1,1h9c0.5,0,1-0.5,1-1V28
	c0-6.5-3.5-13-11.2-13c-3.5,0-6.2,1.4-7.8,2.5V16c0-0.6-0.5-1-1-1H18z"/>
</svg>
