<?xml version="1.0" standalone="no"?>
<!DOCTYPE svg PUBLIC "-//W3C//DTD SVG 20010904//EN"
 "http://www.w3.org/TR/2001/REC-SVG-20010904/DTD/svg10.dtd">
<svg version="1.0" xmlns="http://www.w3.org/2000/svg"
 width="20833.000000pt" height="13333.000000pt" viewBox="0 0 20833.000000 13333.000000"
 preserveAspectRatio="xMidYMid meet">

<g transform="translate(0.000000,13333.000000) scale(0.100000,-0.100000)"
fill="#000000" stroke="none">
<path d="M179635 101943 c-704 -27 -1396 -110 -2200 -264 -1771 -337 -13205
-2536 -13208 -2539 -7 -9 -8310 -54600 -8305 -54605 7 -7 10706 59 10713 67 3
3 725 4581 1604 10172 879 5592 1602 10171 1607 10176 17 16 315 41 554 47
980 23 1744 -257 2184 -801 257 -317 409 -706 482 -1226 22 -158 30 -635 15
-898 -117 -2093 -809 -6989 -1976 -13992 -232 -1391 -581 -3445 -600 -3527
l-5 -23 5370 0 c4573 0 5370 2 5370 14 0 17 2990 20634 3060 21101 146 970
198 1714 187 2670 -6 498 -10 600 -42 990 -87 1044 -320 1989 -671 2713 -231
477 -460 808 -784 1133 -181 182 -317 293 -527 432 l-152 100 83 96 c547 636
1231 1641 1764 2591 262 468 610 1150 821 1610 2047 4460 2854 9768 2370
15590 -63 767 -148 1531 -255 2310 -19 140 -44 322 -55 404 -52 387 -174 879
-326 1305 -449 1265 -1191 2301 -2177 3039 -1184 886 -2711 1332 -4526 1320
-168 -1 -336 -3 -375 -5z m-3630 -14333 c61 -12 170 -42 244 -66 784 -258
1287 -916 1436 -1881 39 -253 49 -399 48 -708 0 -333 -13 -492 -78 -1015 -151
-1199 -397 -2129 -760 -2865 -197 -401 -425 -724 -645 -914 -215 -185 -844
-545 -1280 -731 -453 -194 -771 -287 -1285 -375 -1788 -308 -2280 -391 -2283
-385 -3 7 1498 8602 1503 8608 2 2 628 84 1391 182 1535 198 1484 194 1709
150z"/>
<path d="M154170 97215 c-3308 -635 -6091 -1168 -6185 -1185 -1370 -252 -3041
-901 -4595 -1785 -1146 -652 -2266 -1449 -3265 -2325 -638 -558 -1424 -1346
-2000 -2005 -2895 -3306 -4973 -7650 -6115 -12780 -53 -237 -111 -597 -791
-4860 -2041 -12815 -3472 -21990 -3918 -25135 -199 -1398 -263 -1946 -265
-2250 -1 -208 -3 -199 79 -299 l50 -61 190 1 c966 3 10325 66 10328 69 3 3
534 3137 1181 6965 647 3828 1178 6964 1180 6970 3 10 3366 268 3375 259 3 -2
-489 -3220 -1093 -7150 -603 -3931 -1095 -7149 -1092 -7152 6 -6 10745 43
10750 49 2 2 1853 12105 4115 26894 2262 14790 4115 26900 4118 26913 4 17 1
22 -13 21 -11 -1 -2726 -520 -6034 -1154z m-6793 -13772 c-2 -16 -422 -2681
-932 -5923 -511 -3242 -931 -5898 -934 -5902 -7 -8 -3873 -349 -3879 -343 -5
5 190 1367 292 2050 282 1871 567 3538 852 4980 130 656 311 1510 389 1835
294 1229 1177 2273 2459 2906 363 180 350 176 1076 307 349 63 646 116 659
116 20 1 23 -3 18 -26z"/>
<path d="M119130 90319 c-577 -30 -1255 -102 -1650 -175 -107 -19 -3057 -574
-6555 -1233 -6276 -1181 -6360 -1197 -6368 -1222 -9 -27 -6909 -43281 -6905
-43285 3 -2 10781 68 10784 70 1 1 1211 7399 2689 16441 1478 9042 2688 16441
2689 16441 0 1 485 39 1076 84 1191 91 1113 90 1293 29 318 -106 564 -300 724
-573 166 -282 243 -684 213 -1119 -13 -193 -25 -283 -154 -1077 -343 -2119
-2322 -14623 -4251 -26855 -283 -1798 -517 -3280 -520 -3292 l-5 -23 5483 0
5484 0 6 43 c3 23 1030 6686 2282 14807 1720 11158 2286 14814 2320 14967 191
864 369 2064 464 3123 81 891 105 1520 98 2459 -5 662 -15 924 -52 1406 -181
2339 -761 4258 -1730 5720 -602 909 -1344 1624 -2247 2166 -191 115 -582 316
-793 407 -888 384 -1791 593 -2955 682 -184 15 -1202 21 -1420 9z"/>
<path d="M93770 85530 c-3770 -736 -6900 -1348 -6955 -1360 -556 -121 -1451
-419 -2205 -733 -1954 -814 -3777 -1961 -5370 -3381 -527 -469 -1142 -1090
-1620 -1636 -1813 -2069 -3177 -4549 -4050 -7365 -204 -657 -401 -1410 -545
-2085 -55 -257 -532 -2861 -1515 -8265 -1985 -10923 -2656 -14726 -2770
-15710 -19 -164 -25 -376 -12 -422 4 -13 32 -54 62 -93 l55 -70 405 0 c415 0
10054 61 10056 63 0 1 449 2445 997 5431 548 2986 999 5431 1002 5434 8 9
3365 155 3372 148 6 -6 -1719 -10948 -1733 -10998 -5 -17 255 -18 5360 -18
3939 0 5366 3 5366 11 0 13 6968 42333 6975 42367 4 14 1 22 -7 21 -7 -1
-3098 -603 -6868 -1339z m-5260 -10445 c0 -18 -1662 -9831 -1666 -9834 -5 -5
-4295 -422 -4305 -418 -5 2 886 6434 910 6567 79 431 254 903 482 1300 413
720 1085 1363 1874 1794 245 134 157 112 1477 365 656 126 1201 229 1211 230
9 0 17 -1 17 -4z"/>
<path d="M64675 80005 c-3465 -672 -6354 -1230 -6420 -1239 -731 -105 -1726
-353 -2650 -661 -3159 -1051 -5925 -2834 -8042 -5181 -2037 -2260 -3461 -5007
-4279 -8253 -70 -280 -164 -796 -1865 -10244 -985 -5472 -1788 -9951 -1786
-9954 5 -4 10829 47 10835 52 1 1 370 2080 819 4621 449 2540 817 4620 818
4621 3 6 3466 255 3471 250 3 -3 -360 -2150 -806 -4772 -447 -2621 -810 -4768
-807 -4771 5 -6 10669 46 10676 52 3 3 6340 36698 6337 36700 0 1 -2836 -549
-6301 -1221z m-5588 -9182 c-3 -16 -373 -1940 -822 -4278 -449 -2337 -818
-4251 -820 -4253 -3 -3 -4458 -410 -4462 -407 -7 4 1123 5520 1158 5658 301
1177 1027 2138 2045 2708 272 152 426 213 624 245 268 44 2244 352 2264 353
15 1 17 -4 13 -26z"/>
<path d="M42825 75760 c-682 -130 -3304 -630 -5826 -1110 l-4585 -873 -3365
-8743 -3364 -8742 -3 101 c-2 56 -25 3701 -51 8099 -26 4399 -49 8000 -52
8002 -2 3 -2569 -494 -5704 -1103 l-5700 -1107 2 -45 c6 -91 2694 -25703 2699
-25708 7 -7 13182 -86 13189 -79 6 6 14025 31536 14025 31544 0 7 32 13 -1265
-236z"/>
<path d="M177881 41188 c-1543 -21 -2806 -39 -2807 -41 -1 -1 -75 -418 -163
-927 -89 -509 -164 -937 -167 -952 l-6 -28 869 -2 869 -3 -574 -3838 c-316
-2111 -571 -3841 -568 -3844 6 -6 2387 -86 2391 -81 2 2 251 1740 554 3863
303 2123 554 3870 556 3882 l5 23 843 2 842 3 127 980 c70 539 127 986 127
993 1 8 -14 12 -46 11 -27 -1 -1310 -19 -2852 -41z"/>
<path d="M171142 41028 c-82 -483 -1523 -9350 -1521 -9352 5 -3 2582 -66 2586
-63 1 2 342 2120 758 4708 415 2587 758 4719 761 4737 l6 32 -1290 0 -1290 0
-10 -62z"/>
<path d="M163680 40994 c-1653 -18 -3111 -33 -3240 -33 l-235 -1 -619 -4490
c-341 -2469 -617 -4492 -614 -4496 8 -7 2267 -59 2274 -52 3 3 250 1526 550
3384 299 1859 546 3389 549 3400 6 25 21 29 175 44 323 33 614 -68 768 -265
80 -102 153 -287 155 -394 1 -25 -228 -1431 -507 -3124 -280 -1693 -506 -3080
-504 -3083 7 -6 2167 -58 2174 -52 2 3 280 1556 617 3451 l612 3445 80 14 c44
7 149 13 235 12 125 0 172 -5 245 -22 220 -55 381 -177 469 -357 41 -83 78
-210 79 -274 0 -25 -228 -1453 -508 -3174 -279 -1720 -506 -3130 -503 -3132 7
-8 2319 -58 2326 -51 3 4 241 1407 528 3119 287 1711 532 3164 543 3227 36
208 45 329 45 590 -1 485 -79 847 -262 1215 -98 198 -200 342 -357 504 -261
270 -587 463 -1004 595 l-114 36 -476 -1 c-262 -1 -1828 -17 -3481 -35z"/>
<path d="M142805 40988 c-10 -43 -1385 -8562 -1385 -8580 0 -14 8 -18 43 -18
23 0 557 -9 1187 -20 629 -10 1146 -17 1149 -15 4 5 1021 6490 1021 6514 0 21
316 9 440 -18 398 -85 642 -287 735 -606 14 -50 26 -110 26 -135 0 -25 -200
-1341 -445 -2925 -244 -1584 -443 -2881 -442 -2882 4 -5 2176 -66 2179 -62 6
7 1027 5972 1038 6064 15 121 15 495 0 625 -101 901 -541 1552 -1311 1944 -69
35 -164 80 -212 100 l-87 36 -1965 0 -1966 0 -5 -22z"/>
<path d="M155326 40950 l-1240 -5 -722 -4365 c-397 -2401 -725 -4383 -728
-4405 l-7 -41 948 -25 c521 -14 949 -25 951 -23 2 1 118 721 258 1600 140 879
256 1599 257 1600 1 2 150 -15 331 -37 290 -34 334 -42 371 -63 106 -63 177
-174 197 -311 12 -87 43 133 -357 -2525 -24 -157 -41 -287 -40 -289 5 -5 1904
-55 1909 -50 2 2 133 821 290 1819 307 1947 305 1930 272 2087 -48 224 -181
422 -374 550 -34 23 -67 43 -74 46 -15 5 -22 -1 82 69 326 217 592 611 734
1088 60 203 63 230 112 1005 52 822 52 794 -6 1021 -147 567 -538 1009 -1086
1228 l-91 36 -374 -2 c-206 -2 -932 -5 -1613 -8z m1235 -2101 c99 -50 169
-152 183 -264 5 -35 -11 -175 -54 -479 -66 -478 -71 -495 -156 -580 -24 -25
-72 -58 -106 -75 l-61 -31 -492 0 -491 0 115 725 116 725 453 0 c438 0 454 -1
493 -21z"/>
<path d="M151185 40917 c-462 -5 -840 -10 -841 -10 -3 -5 -1393 -8692 -1391
-8694 2 -2 2240 -81 2243 -79 1 1 342 1972 758 4381 417 2409 760 4388 762
4398 6 20 -82 20 -1531 4z"/>
</g>
</svg>
