<?xml version="1.0" encoding="utf-8"?>
<!-- Generator: Adobe Illustrator 28.0.0, SVG Export Plug-In . SVG Version: 6.00 Build 0)  -->
<svg version="1.1" id="Layer_1" xmlns="http://www.w3.org/2000/svg" xmlns:xlink="http://www.w3.org/1999/xlink" x="0px" y="0px"
	 viewBox="0 0 2047.65 1151.8" style="enable-background:new 0 0 2047.65 1151.8;" xml:space="preserve">
<style type="text/css">
	.st0{fill:#0C0C0C;}
	.st1{fill:#0F0F0F;}
	.st2{clip-path:url(#SVGID_00000173159371925596149460000004139214487484934044_);}
	.st3{fill:none;stroke:#FFFFFF;stroke-width:3;stroke-miterlimit:10;}
	.st4{fill-rule:evenodd;clip-rule:evenodd;stroke:#000000;stroke-width:2.0126;stroke-miterlimit:10;}
	.st5{fill-rule:evenodd;clip-rule:evenodd;fill:#FFFFFF;}
	.st6{fill-rule:evenodd;clip-rule:evenodd;fill:#FFFFFF;stroke:#FFFFFF;stroke-miterlimit:10;}
	.st7{stroke:#FFFFFF;stroke-width:2.0126;stroke-miterlimit:10;}
	.st8{fill-rule:evenodd;clip-rule:evenodd;fill:#FFFFFF;stroke:#000000;stroke-width:2.0126;stroke-miterlimit:10;}
	.st9{fill-rule:evenodd;clip-rule:evenodd;}
	.st10{fill:#FFFFFF;}
	.st11{fill-rule:evenodd;clip-rule:evenodd;stroke:#000000;stroke-miterlimit:10;}
	.st12{fill:#FFFFFF;stroke:#000000;stroke-width:2.0126;stroke-miterlimit:10;}
	.st13{opacity:0.8;}
	.st14{fill:none;stroke:#FFFFFF;stroke-width:0.5;stroke-miterlimit:10;}
</style>
<g>
	<g>
		<rect x="1226.23" y="607.37" class="st5" width="309.3" height="84.36"/>
		<path d="M1538.18,694.37h-314.61v-89.66h314.61V694.37z M1228.88,689.07h304v-79.05h-304V689.07z"/>
	</g>
	<path class="st9" d="M24.8,590.94l1017.68,560.86h1005.17V420.48L1569.25,79.26c0,0,52.22,135.29-28.86,244.28
		c0,0,23.17,9.02,21.08,62.09l-27.44,202.51l-94.47-0.38l22.31-153.52c0,0,4.37-26.49-13.29-32.56c0,0-8.64-4.27-20.6-1.14
		l-29.43,186.65l-93.04,0.57l69.5-464.07l-33.7-27.25l-77.28,491.32l-93.61-0.57l20.41-130.73l-36.55,2.75l-21.55,127.98
		l-93.14,0.57l45.48-294.13c0,0,2.18-32,14.53-50.79l-80.41-55.07c0,0,38.55,40.25,21.17,116.4l-41.11,283.59H903.9l44.43-280.07
		c0,0,4.27-22.79-12.91-22.98l-22.12,1.71l-49.08,301.06l-94.37,0.85l57.82-359.35l-33.51-26.96l-65.89,386.31h-93.04l16.04-101.4
		l-36.55,1.61l-18.23,99.78h-92.57l39.4-219.98c0,0,9.59-45.67,31.14-74.34l-54.55-40.7l-58.14,334.54l-92.76,0.47l15-88.01
		l-37.5,2.75l-15,84.78l-94.09,0.47l35.79-195.01c0,0,12.91-42.91,36.74-62.95l-35.39-28.36L145.09,589.57L24.8,590.94z
		 M1230.21,679.38l10.35-63.99h29.15c0,0,14.34,3.99,11.77,21.46l-7.5,43.67l-16.14-0.47l6.65-43.1c0,0-0.57-6.65-9.02-5.79
		l-7.6,48.51L1230.21,679.38z M1296.58,616.15l-10.35,64.56l16.61,0.57l11.3-65.32L1296.58,616.15z M1356.77,637.99l0.66-10.73
		c0,0-0.28-8.45-9.11-11.49l-23.93,0.09l-10.82,65.41l14.05,0.38l3.8-23.83l4.84,0.57c0,0,2.37,0.57,1.9,3.89l-2.94,19.56
		l14.15,0.38l4.27-27.06c0,0,0.66-3.89-3.61-6.46C1350.03,648.71,1355.35,645.87,1356.77,637.99L1356.77,637.99z M1344.14,634.57
		L1344.14,634.57l-0.76,5.22c-0.47,2.37-2.85,2.37-2.85,2.37l-6.55-0.09l1.71-10.92l6.74,0.09
		C1344.71,631.91,1344.14,634.57,1344.14,634.57L1344.14,634.57z M1360.66,682.51l9.21-66.74l54.97-0.57c0,0,16.23,2.56,12.63,22.6
		l-7.79,46.43l-17.28-0.38l7.6-46.81c0,0,0-6.08-8.35-4.75l-9.11,51.27l-16.14-0.38l7.6-46.05c0,0,0-6.17-8.26-4.84l-8.16,50.6
		L1360.66,682.51z M1451.24,614.82h19.08l-11.3,70.35l-19.18-0.47L1451.24,614.82z M1508.3,628.49l-8.26,57.72l-17.75-0.57
		l8.54-57.15h-12.91l2.47-14.15l42.34-0.57l-1.9,14.72H1508.3z"/>
	<g>
		<polygon class="st9" points="106.01,336.86 104.86,492.16 149.77,371.96 		"/>
		<path d="M103.48,499.6l1.23-165.47l46.62,37.4L103.48,499.6z M107.31,339.6l-1.08,145.12l41.97-112.32L107.31,339.6z"/>
	</g>
	<g>
		<polygon class="st10" points="2.89,356.58 102.1,337.31 103.05,497.38 169.51,324.68 270.24,305.5 144.26,590.33 27.2,588.33 		
			"/>
		<path d="M145.97,593.01L24.8,590.94L0,354.44l104.74-20.35l0.88,149.22l61.94-160.96l107.15-20.4L145.97,593.01z M29.59,585.72
			l112.95,1.92l123.23-278.59l-94.32,17.96l-70.97,184.43l-1.01-170.92l-93.69,18.2L29.59,585.72z"/>
	</g>
	<g>
		<path class="st10" d="M237.02,588.81l94.09-0.47l15-84.78l37.5-2.75l-15,88.01l92.66-0.47l57.15-331.06l-112.12,21.74
			c0,0-109.09,11.77-137,130.45L237.02,588.81z"/>
		<path d="M365.46,591.47l14.96-87.78l-32.06,2.35l-15.03,84.93l-99.49,0.5l32.84-182.48c28.05-119.26,138.22-132.5,139.33-132.62
			l115.68-22.44L463.5,590.97L365.46,591.47z M515.15,260.61L406.8,281.62c-1.29,0.15-107.78,13.06-134.92,128.45l-31.69,176.07
			l88.68-0.45l14.97-84.63l42.94-3.15l-15.04,88.23l87.28-0.45L515.15,260.61z"/>
	</g>
	<g>
		<path class="st10" d="M503.51,589.38l92.47-0.57l18.32-99.78l36.55-1.61l-16.04,101.4h93.04l63.14-383.37l-122.66,23.93
			c0,0-100.64,19.46-125.51,139.47C542.82,368.83,502.18,590.33,503.51,589.38L503.51,589.38z"/>
		<path d="M504.34,592.05l-2.11-0.05l-0.78-0.95c-1.12-1.37-1.35-1.66,18.76-112.85c9.95-55,20.01-109.85,20.01-109.85
			c24.96-120.4,126.59-141.4,127.62-141.59l126.41-24.66l-64.12,389.36h-98.4l16.02-101.26l-31.2,1.38l-18.34,99.86L504.34,592.05z
			 M787.76,208.77l-118.92,23.2c-0.99,0.19-99.22,20.62-123.42,137.4c-10.2,55.61-35.78,195.96-38.96,217.34l87.31-0.54l18.31-99.7
			l41.91-1.85l-16.07,101.54h87.69L787.76,208.77z"/>
	</g>
	<g>
		<path class="st10" d="M769.92,590.33l93.61-1.52l49.37-301.91l22.12-1.71c0,0,16.42,1.14,12.82,22.98
			c-3.61,21.74-44.34,280.07-44.34,280.07h95.23l41.58-269.82c0,0,38.83-162.54-89.72-144.02l-118.01,22.22L769.92,590.33z"/>
		<path d="M766.8,593.03l63.45-398.68l119.85-22.56c7.01-1.01,13.65-1.52,19.84-1.52c25.7,0,45.48,8.55,58.78,25.4
			c33.12,41.96,14.96,120.06,14.17,123.36L1001,590.89h-100.6l0.48-3.07c0.41-2.58,40.77-258.59,44.34-280.1
			c1.12-6.8,0.3-12.01-2.46-15.49c-2.82-3.57-6.95-4.28-7.78-4.39l-19.8,1.53l-49.39,302.04L766.8,593.03z M834.9,198.87
			l-61.87,388.75l88.24-1.43l49.35-301.78l24.39-1.88l0.19,0.01c0.29,0.02,7.1,0.56,11.72,6.41c3.72,4.7,4.91,11.31,3.53,19.65
			c-3.35,20.2-39.24,247.75-43.85,276.99h89.85l41.24-267.57c0.23-1,18.39-79.13-13.14-119.06c-15.28-19.36-40.13-26.75-73.58-21.93
			L834.9,198.87z"/>
	</g>
	<g>
		<path class="st10" d="M1039.17,588.24l93.04-0.57l21.65-127.98l36.55-2.75l-20.22,133.39l93.33-2.09l74.72-488.47l-109.09,20.89
			c0,0-110.8,17.56-144.59,173.46C1084.55,294.11,1037.08,590.33,1039.17,588.24L1039.17,588.24z"/>
		<path d="M1167.09,593.05l20.2-133.22l-31.16,2.35l-21.67,128.13l-95.33,0.59l-1.22-0.01l-0.8-0.94c-1.16-1.37-1.69-2,21.57-149.83
			c11.4-72.48,23.13-145.7,23.25-146.43c17.66-81.47,56.51-124.84,86-146.89c32.08-23.99,59.64-28.58,60.8-28.76l112.69-21.58
			l-75.62,494.38L1167.09,593.05z M1193.53,454.04l-20.25,133.56l87.95-1.97l73.81-482.55l-105.4,20.18
			c-0.35,0.06-27.72,4.66-58.78,27.97c-28.67,21.52-66.47,63.88-83.72,143.44c-12.04,75.16-42.41,266.32-45.19,290.89l88.01-0.54
			l21.62-127.83L1193.53,454.04z"/>
	</g>
	<g>
		<path class="st10" d="M1305.1,588.24l93.04-0.57l29.34-186.65c0,0,36.36-8.07,34.94,27.15c-1.42,35.13-23.26,160.07-23.26,160.07
			h93.04l27.72-191.12c0,0,10.63-60.1-19.94-73.1c0,0,65.98-64.18,45.29-207.26c0,0-4.94-62.47-82.98-48.51L1380.67,91.6
			L1305.1,588.24z"/>
		<path d="M1302.01,590.91l76.32-501.56l123.46-23.71c7.73-1.38,15.08-2.08,21.88-2.08c59.36,0,64.2,52.46,64.24,52.99
			c18.32,126.6-31.69,192.93-43.61,206.66c28.14,16.24,18.66,71.92,18.22,74.37l-28.04,193.31H1436l0.54-3.11
			c0.22-1.25,21.82-125.17,23.22-159.72c0.34-8.31-1.53-14.64-5.56-18.83c-5.05-5.25-12.71-6.36-18.26-6.36
			c-2.54,0-4.72,0.23-6.15,0.44l-29.39,187L1302.01,590.91z M1442.31,585.58h87.59l27.39-188.84c0.12-0.66,9.92-58.25-18.35-70.28
			l-3.66-1.56l2.85-2.78c0.65-0.63,64.75-65.07,44.51-204.98c-0.18-2.13-4.59-48.28-58.97-48.28c-6.49,0-13.52,0.67-20.91,1.99
			l-119.75,23l-74.82,491.71l87.68-0.54l29.27-186.21l1.77-0.39c0.16-0.03,3.93-0.86,9.04-0.86c6.58,0,15.75,1.39,22.09,7.99
			c5.06,5.27,7.43,12.92,7.03,22.72C1463.76,460.51,1445.76,565.65,1442.31,585.58z"/>
	</g>
	<g>
		<path class="st9" d="M359.68,428.64l35.6-3.23l14.05-73.1l-18.32,2.85c0,0-17.56,5.79-21.93,27.34L359.68,428.64z"/>
		<path d="M356.37,431.61l10.11-49.63c4.62-22.8,22.92-29.08,23.7-29.33l0.42-0.1l22.05-3.43l-15.14,78.76L356.37,431.61z
			 M391.66,357.74c-1.87,0.69-16.17,6.51-19.98,25.29l-8.69,42.65l30.06-2.72l12.96-67.44L391.66,357.74z"/>
	</g>
	<g>
		<path class="st9" d="M630.92,401.58l34.37-3.32l14.34-84.78l-18.42,3.51c0,0-19.27,8.16-22.5,28.58L630.92,401.58z"/>
		<path d="M627.83,404.55l8.25-59.34c3.43-21.67,23.25-30.3,24.09-30.65l0.54-0.16l22.17-4.23l-15.31,90.55L627.83,404.55z
			 M662.02,319.54c-2.11,0.99-17.92,8.96-20.69,26.45l-7.32,52.64l29-2.8l13.36-79.02L662.02,319.54z"/>
	</g>
	<g>
		<path class="st9" d="M1170.66,345.38l35.79-3.13l17.18-109.09l-12.15,2.18c0,0-22.79,7.41-27.15,30.48
			C1178.64,291.17,1173.89,321.93,1170.66,345.38L1170.66,345.38z"/>
		<path d="M1167.58,348.31l0.45-3.29c3.04-22.1,7.89-53.87,13.71-79.78c4.59-24.25,27.93-32.1,28.92-32.42l0.35-0.09l15.82-2.84
			l-18.09,114.82L1167.58,348.31z M1212.16,237.92c-1.92,0.69-21.39,8.15-25.22,28.39c-5.52,24.55-10.15,54.36-13.19,76.13
			l30.41-2.66l16.28-103.35L1212.16,237.92z"/>
	</g>
	<g>
		<path class="st9" d="M1444.09,277.5l13.86-79.28l26.01-3.32c0,0,22.79-0.19,17.75,33.7c0,0-2.37,26.2-13.39,35.51
			c0,0-10.16,7.5-21.55,9.49L1444.09,277.5z"/>
		<path d="M1440.83,280.75l14.85-84.91l28.27-3.59c0.92,0,8.93,0.2,14.94,7.17c5.58,6.46,7.41,16.42,5.46,29.58
			c-0.08,0.96-2.59,27.25-14.3,37.14c-0.57,0.43-10.93,8-22.81,10.08L1440.83,280.75z M1460.23,200.6l-12.88,73.64l18.98-3.26
			c10.65-1.86,20.33-8.94,20.42-9.01c9.93-8.39,12.3-33.36,12.32-33.61c1.73-11.7,0.32-20.22-4.19-25.47
			c-4.21-4.9-9.8-5.31-10.77-5.34L1460.23,200.6z"/>
	</g>
</g>
<g>
	<g>
		<rect x="1226.23" y="607.37" class="st5" width="309.3" height="84.36"/>
		<path d="M1538.18,694.37h-314.61v-89.66h314.61V694.37z M1228.88,689.07h304v-79.05h-304V689.07z"/>
	</g>
	<path class="st9" d="M24.8,590.94l1017.68,560.86h1005.17V420.48L1569.25,79.26c0,0,52.22,135.29-28.86,244.28
		c0,0,23.17,9.02,21.08,62.09l-27.44,202.51l-94.47-0.38l22.31-153.52c0,0,4.37-26.49-13.29-32.56c0,0-8.64-4.27-20.6-1.14
		l-29.43,186.65l-93.04,0.57l69.5-464.07l-33.7-27.25l-77.28,491.32l-93.61-0.57l20.41-130.73l-36.55,2.75l-21.55,127.98
		l-93.14,0.57l45.48-294.13c0,0,2.18-32,14.53-50.79l-80.41-55.07c0,0,38.55,40.25,21.17,116.4l-41.11,283.59H903.9l44.43-280.07
		c0,0,4.27-22.79-12.91-22.98l-22.12,1.71l-49.08,301.06l-94.37,0.85l57.82-359.35l-33.51-26.96l-65.89,386.31h-93.04l16.04-101.4
		l-36.55,1.61l-18.23,99.78h-92.57l39.4-219.98c0,0,9.59-45.67,31.14-74.34l-54.55-40.7l-58.14,334.54l-92.76,0.47l15-88.01
		l-37.5,2.75l-15,84.78l-94.09,0.47l35.79-195.01c0,0,12.91-42.91,36.74-62.95l-35.39-28.36L145.09,589.57L24.8,590.94z
		 M1230.21,679.38l10.35-63.99h29.15c0,0,14.34,3.99,11.77,21.46l-7.5,43.67l-16.14-0.47l6.65-43.1c0,0-0.57-6.65-9.02-5.79
		l-7.6,48.51L1230.21,679.38z M1296.58,616.15l-10.35,64.56l16.61,0.57l11.3-65.32L1296.58,616.15z M1356.77,637.99l0.66-10.73
		c0,0-0.28-8.45-9.11-11.49l-23.93,0.09l-10.82,65.41l14.05,0.38l3.8-23.83l4.84,0.57c0,0,2.37,0.57,1.9,3.89l-2.94,19.56
		l14.15,0.38l4.27-27.06c0,0,0.66-3.89-3.61-6.46C1350.03,648.71,1355.35,645.87,1356.77,637.99L1356.77,637.99z M1344.14,634.57
		L1344.14,634.57l-0.76,5.22c-0.47,2.37-2.85,2.37-2.85,2.37l-6.55-0.09l1.71-10.92l6.74,0.09
		C1344.71,631.91,1344.14,634.57,1344.14,634.57L1344.14,634.57z M1360.66,682.51l9.21-66.74l54.97-0.57c0,0,16.23,2.56,12.63,22.6
		l-7.79,46.43l-17.28-0.38l7.6-46.81c0,0,0-6.08-8.35-4.75l-9.11,51.27l-16.14-0.38l7.6-46.05c0,0,0-6.17-8.26-4.84l-8.16,50.6
		L1360.66,682.51z M1451.24,614.82h19.08l-11.3,70.35l-19.18-0.47L1451.24,614.82z M1508.3,628.49l-8.26,57.72l-17.75-0.57
		l8.54-57.15h-12.91l2.47-14.15l42.34-0.57l-1.9,14.72H1508.3z"/>
	<g>
		<polygon class="st9" points="106.01,336.86 104.86,492.16 149.77,371.96 		"/>
		<path d="M103.48,499.6l1.23-165.47l46.62,37.4L103.48,499.6z M107.31,339.6l-1.08,145.12l41.97-112.32L107.31,339.6z"/>
	</g>
	<g>
		<polygon class="st10" points="2.89,356.58 102.1,337.31 103.05,497.38 169.51,324.68 270.24,305.5 144.26,590.33 27.2,588.33 		
			"/>
		<path d="M145.97,593.01L24.8,590.94L0,354.44l104.74-20.35l0.88,149.22l61.94-160.96l107.15-20.4L145.97,593.01z M29.59,585.72
			l112.95,1.92l123.23-278.59l-94.32,17.96l-70.97,184.43l-1.01-170.92l-93.69,18.2L29.59,585.72z"/>
	</g>
	<g>
		<path class="st10" d="M237.02,588.81l94.09-0.47l15-84.78l37.5-2.75l-15,88.01l92.66-0.47l57.15-331.06l-112.12,21.74
			c0,0-109.09,11.77-137,130.45L237.02,588.81z"/>
		<path d="M365.46,591.47l14.96-87.78l-32.06,2.35l-15.03,84.93l-99.49,0.5l32.84-182.48c28.05-119.26,138.22-132.5,139.33-132.62
			l115.68-22.44L463.5,590.97L365.46,591.47z M515.15,260.61L406.8,281.62c-1.29,0.15-107.78,13.06-134.92,128.45l-31.69,176.07
			l88.68-0.45l14.97-84.63l42.94-3.15l-15.04,88.23l87.28-0.45L515.15,260.61z"/>
	</g>
	<g>
		<path class="st10" d="M503.51,589.38l92.47-0.57l18.32-99.78l36.55-1.61l-16.04,101.4h93.04l63.14-383.37l-122.66,23.93
			c0,0-100.64,19.46-125.51,139.47C542.82,368.83,502.18,590.33,503.51,589.38L503.51,589.38z"/>
		<path d="M504.34,592.05l-2.11-0.05l-0.78-0.95c-1.12-1.37-1.35-1.66,18.76-112.85c9.95-55,20.01-109.85,20.01-109.85
			c24.96-120.4,126.59-141.4,127.62-141.59l126.41-24.66l-64.12,389.36h-98.4l16.02-101.26l-31.2,1.38l-18.34,99.86L504.34,592.05z
			 M787.76,208.77l-118.92,23.2c-0.99,0.19-99.22,20.62-123.42,137.4c-10.2,55.61-35.78,195.96-38.96,217.34l87.31-0.54l18.31-99.7
			l41.91-1.85l-16.07,101.54h87.69L787.76,208.77z"/>
	</g>
	<g>
		<path class="st10" d="M769.92,590.33l93.61-1.52l49.37-301.91l22.12-1.71c0,0,16.42,1.14,12.82,22.98
			c-3.61,21.74-44.34,280.07-44.34,280.07h95.23l41.58-269.82c0,0,38.83-162.54-89.72-144.02l-118.01,22.22L769.92,590.33z"/>
		<path d="M766.8,593.03l63.45-398.68l119.85-22.56c7.01-1.01,13.65-1.52,19.84-1.52c25.7,0,45.48,8.55,58.78,25.4
			c33.12,41.96,14.96,120.06,14.17,123.36L1001,590.89h-100.6l0.48-3.07c0.41-2.58,40.77-258.59,44.34-280.1
			c1.12-6.8,0.3-12.01-2.46-15.49c-2.82-3.57-6.95-4.28-7.78-4.39l-19.8,1.53l-49.39,302.04L766.8,593.03z M834.9,198.87
			l-61.87,388.75l88.24-1.43l49.35-301.78l24.39-1.88l0.19,0.01c0.29,0.02,7.1,0.56,11.72,6.41c3.72,4.7,4.91,11.31,3.53,19.65
			c-3.35,20.2-39.24,247.75-43.85,276.99h89.85l41.24-267.57c0.23-1,18.39-79.13-13.14-119.06c-15.28-19.36-40.13-26.75-73.58-21.93
			L834.9,198.87z"/>
	</g>
	<g>
		<path class="st10" d="M1039.17,588.24l93.04-0.57l21.65-127.98l36.55-2.75l-20.22,133.39l93.33-2.09l74.72-488.47l-109.09,20.89
			c0,0-110.8,17.56-144.59,173.46C1084.55,294.11,1037.08,590.33,1039.17,588.24L1039.17,588.24z"/>
		<path d="M1167.09,593.05l20.2-133.22l-31.16,2.35l-21.67,128.13l-95.33,0.59l-1.22-0.01l-0.8-0.94c-1.16-1.37-1.69-2,21.57-149.83
			c11.4-72.48,23.13-145.7,23.25-146.43c17.66-81.47,56.51-124.84,86-146.89c32.08-23.99,59.64-28.58,60.8-28.76l112.69-21.58
			l-75.62,494.38L1167.09,593.05z M1193.53,454.04l-20.25,133.56l87.95-1.97l73.81-482.55l-105.4,20.18
			c-0.35,0.06-27.72,4.66-58.78,27.97c-28.67,21.52-66.47,63.88-83.72,143.44c-12.04,75.16-42.41,266.32-45.19,290.89l88.01-0.54
			l21.62-127.83L1193.53,454.04z"/>
	</g>
	<g>
		<path class="st10" d="M1305.1,588.24l93.04-0.57l29.34-186.65c0,0,36.36-8.07,34.94,27.15c-1.42,35.13-23.26,160.07-23.26,160.07
			h93.04l27.72-191.12c0,0,10.63-60.1-19.94-73.1c0,0,65.98-64.18,45.29-207.26c0,0-4.94-62.47-82.98-48.51L1380.67,91.6
			L1305.1,588.24z"/>
		<path d="M1302.01,590.91l76.32-501.56l123.46-23.71c7.73-1.38,15.08-2.08,21.88-2.08c59.36,0,64.2,52.46,64.24,52.99
			c18.32,126.6-31.69,192.93-43.61,206.66c28.14,16.24,18.66,71.92,18.22,74.37l-28.04,193.31H1436l0.54-3.11
			c0.22-1.25,21.82-125.17,23.22-159.72c0.34-8.31-1.53-14.64-5.56-18.83c-5.05-5.25-12.71-6.36-18.26-6.36
			c-2.54,0-4.72,0.23-6.15,0.44l-29.39,187L1302.01,590.91z M1442.31,585.58h87.59l27.39-188.84c0.12-0.66,9.92-58.25-18.35-70.28
			l-3.66-1.56l2.85-2.78c0.65-0.63,64.75-65.07,44.51-204.98c-0.18-2.13-4.59-48.28-58.97-48.28c-6.49,0-13.52,0.67-20.91,1.99
			l-119.75,23l-74.82,491.71l87.68-0.54l29.27-186.21l1.77-0.39c0.16-0.03,3.93-0.86,9.04-0.86c6.58,0,15.75,1.39,22.09,7.99
			c5.06,5.27,7.43,12.92,7.03,22.72C1463.76,460.51,1445.76,565.65,1442.31,585.58z"/>
	</g>
	<g>
		<path class="st9" d="M359.68,428.64l35.6-3.23l14.05-73.1l-18.32,2.85c0,0-17.56,5.79-21.93,27.34L359.68,428.64z"/>
		<path d="M356.37,431.61l10.11-49.63c4.62-22.8,22.92-29.08,23.7-29.33l0.42-0.1l22.05-3.43l-15.14,78.76L356.37,431.61z
			 M391.66,357.74c-1.87,0.69-16.17,6.51-19.98,25.29l-8.69,42.65l30.06-2.72l12.96-67.44L391.66,357.74z"/>
	</g>
	<g>
		<path class="st9" d="M630.92,401.58l34.37-3.32l14.34-84.78l-18.42,3.51c0,0-19.27,8.16-22.5,28.58L630.92,401.58z"/>
		<path d="M627.83,404.55l8.25-59.34c3.43-21.67,23.25-30.3,24.09-30.65l0.54-0.16l22.17-4.23l-15.31,90.55L627.83,404.55z
			 M662.02,319.54c-2.11,0.99-17.92,8.96-20.69,26.45l-7.32,52.64l29-2.8l13.36-79.02L662.02,319.54z"/>
	</g>
	<g>
		<path class="st9" d="M1170.66,345.38l35.79-3.13l17.18-109.09l-12.15,2.18c0,0-22.79,7.41-27.15,30.48
			C1178.64,291.17,1173.89,321.93,1170.66,345.38L1170.66,345.38z"/>
		<path d="M1167.58,348.31l0.45-3.29c3.04-22.1,7.89-53.87,13.71-79.78c4.59-24.25,27.93-32.1,28.92-32.42l0.35-0.09l15.82-2.84
			l-18.09,114.82L1167.58,348.31z M1212.16,237.92c-1.92,0.69-21.39,8.15-25.22,28.39c-5.52,24.55-10.15,54.36-13.19,76.13
			l30.41-2.66l16.28-103.35L1212.16,237.92z"/>
	</g>
	<g>
		<path class="st9" d="M1444.09,277.5l13.86-79.28l26.01-3.32c0,0,22.79-0.19,17.75,33.7c0,0-2.37,26.2-13.39,35.51
			c0,0-10.16,7.5-21.55,9.49L1444.09,277.5z"/>
		<path d="M1440.83,280.75l14.85-84.91l28.27-3.59c0.92,0,8.93,0.2,14.94,7.17c5.58,6.46,7.41,16.42,5.46,29.58
			c-0.08,0.96-2.59,27.25-14.3,37.14c-0.57,0.43-10.93,8-22.81,10.08L1440.83,280.75z M1460.23,200.6l-12.88,73.64l18.98-3.26
			c10.65-1.86,20.33-8.94,20.42-9.01c9.93-8.39,12.3-33.36,12.32-33.61c1.73-11.7,0.32-20.22-4.19-25.47
			c-4.21-4.9-9.8-5.31-10.77-5.34L1460.23,200.6z"/>
	</g>
</g>
</svg>
