<svg version="1.2" xmlns="http://www.w3.org/2000/svg" viewBox="0 0 5208 3333" width="5208" height="3333">
	<title>logo-3-svg</title>
	<style>
		.s0 { fill-opacity: 1;fill: #ff0000 } 
		.s1 { fill: #ff0000 } 
	</style>
	<g id="Layer">
		<path id="Layer" fill-rule="evenodd" class="s0" d="m4500.3 784.5c45.3-0.3 83.5 10.9 113.1 33 24.7 18.5 43.2 44.4 54.4 76 3.8 10.7 6.9 23 8.2 32.7 0.2 2 0.9 6.5 1.4 10 2.6 19.5 4.8 38.6 6.3 57.8 12.1 145.5-8 278.3-59.2 389.8-5.3 11.4-14 28.5-20.6 40.2-13.3 23.7-30.4 48.9-44 64.8l-2.1 2.4 3.8 2.5c5.2 3.4 8.6 6.2 13.1 10.8 8.2 8.1 13.9 16.4 19.7 28.3 8.7 18.1 14.5 41.7 16.7 67.8 0.8 9.8 0.9 12.3 1.1 24.8 0.2 23.9-1 42.5-4.7 66.7-1.8 11.7-76.5 527.1-76.5 527.5 0 0.3-19.9 0.4-134.3 0.4h-134.2l0.1-0.6c0.5-2 9.2-53.4 15-88.2 29.2-175 46.5-297.4 49.4-349.8 0.4-6.5 0.2-18.5-0.3-22.4-1.9-13-5.7-22.7-12.1-30.7-11-13.6-30.1-20.6-54.6-20-6 0.2-13.4 0.8-13.8 1.2-0.2 0.1-18.3 114.6-40.2 254.4-22 139.8-40.1 254.2-40.1 254.3-0.2 0.2-267.7 1.9-267.8 1.7-0.2-0.2 207.4-1364.9 207.6-1365.2 0 0 285.9-55 330.2-63.4 20.1-3.9 37.4-6 55-6.6 1-0.1 5.2-0.1 9.3-0.2zm-142.8 362.3c-19.1 2.4-34.7 4.5-34.8 4.5-0.1 0.1-37.6 215-37.5 215.2 0 0.1 12.3-1.9 57-9.6 12.9-2.2 20.8-4.6 32.1-9.4 11-4.7 26.7-13.7 32-18.3 5.5-4.7 11.2-12.8 16.2-22.8 9-18.4 15.2-41.7 19-71.6 1.6-13.1 1.9-17.1 1.9-25.4 0.1-7.7-0.2-11.4-1.2-17.7-3.7-24.2-16.3-40.6-35.9-47-1.8-0.7-4.5-1.4-6.1-1.7-5.6-1.1-4.3-1.2-42.7 3.8z"/>
		<path id="Layer" fill-rule="evenodd" class="s1" d="m4005.1 874c0.4 0 0.4 0.1 0.3 0.5 0 0.4-46.4 303.1-102.9 672.9-56.6 369.7-102.8 672.3-102.9 672.3-0.1 0.2-268.6 1.4-268.7 1.2-0.1 0 12.2-80.5 27.3-178.8 15.1-98.2 27.4-178.7 27.3-178.7-0.2-0.2-84.3 6.2-84.4 6.5 0 0.1-13.3 78.5-29.5 174.2-16.2 95.7-29.4 174.1-29.5 174.2-0.1 0-234.1 1.6-258.2 1.7h-4.8l-1.2-1.5c-2.1-2.5-2-2.3-2-7.5 0.1-7.6 1.7-21.3 6.6-56.2 11.2-78.7 47-308 98-628.4 17-106.6 18.4-115.6 19.8-121.5 28.5-128.3 80.5-236.9 152.8-319.5 14.4-16.5 34.1-36.2 50-50.1 25-22 53-41.9 81.7-58.2 38.8-22.1 80.6-38.3 114.8-44.6 2.4-0.4 72-13.7 154.7-29.6 82.7-15.9 150.5-28.9 150.8-28.9zm-321.1 372.5c-0.3 0-7.8 1.3-16.5 2.9-18.1 3.3-17.8 3.2-26.9 7.7-32 15.8-54.1 41.9-61.5 72.7-1.9 8.1-6.4 29.4-9.7 45.8-7.1 36.1-14.2 77.7-21.3 124.5-2.5 17.1-7.4 51.2-7.3 51.3 0.2 0.1 96.8-8.4 97-8.6 0.1-0.1 10.6-66.5 23.3-147.5 12.8-81.1 23.3-147.7 23.3-148.1 0.2-0.6 0.1-0.7-0.4-0.7z"/>
		<path id="Layer" class="s1" d="m2978.3 1075.3c-14.5 0.7-31.4 2.5-41.3 4.4-2.7 0.4-76.4 14.3-163.9 30.8-156.9 29.5-159 29.9-159.2 30.5-0.2 0.7-172.7 1082.1-172.6 1082.1 0.1 0.1 269.5-1.7 269.6-1.7 0 0 30.3-185 67.2-411 37-226.1 67.2-411 67.3-411 0-0.1 12.1-1 26.8-2.1 29.8-2.3 27.9-2.3 32.4-0.8 7.9 2.7 14.1 7.5 18.1 14.4 4.1 7 6 17 5.3 27.9-0.3 4.8-0.6 7.1-3.9 27-8.5 52.9-58 365.5-106.2 671.3-7.1 45-12.9 82-13 82.3l-0.2 0.6h137.1 137.1l0.2-1.1c0-0.5 25.7-167.1 57-370.1 43-279 57.2-370.4 58-374.2 4.8-21.6 9.3-51.6 11.6-78.1 2-22.3 2.7-38 2.5-61.5-0.2-16.5-0.4-23.1-1.3-35.1-4.5-58.5-19-106.5-43.3-143-15-22.7-33.6-40.6-56.1-54.2-4.8-2.8-14.6-7.9-19.9-10.2-22.2-9.5-44.7-14.8-73.9-17-4.6-0.4-30-0.5-35.5-0.2z"/>
		<path id="Layer" fill-rule="evenodd" class="s1" d="m2516 1161.5c0.2 0 0.2 0.2 0.1 0.5-0.1 0.9-174.3 1058.9-174.3 1059.2 0 0.2-35.7 0.3-134.2 0.3-127.6 0-134.1 0-134-0.4 0.4-1.3 43.5-274.9 43.3-275-0.1-0.2-84.1 3.5-84.3 3.7 0 0.1-11.3 61.2-25 135.8-13.7 74.7-24.9 135.8-24.9 135.8-0.1 0.1-241.1 1.6-251.4 1.6h-10.2l-1.3-1.8c-0.8-0.9-1.5-2-1.6-2.3-0.3-1.1-0.2-6.4 0.3-10.5 2.9-24.6 19.6-119.7 69.3-392.8 24.5-135.1 36.5-200.2 37.8-206.6 3.6-16.9 8.6-35.7 13.7-52.1 21.8-70.4 55.9-132.4 101.2-184.2 12-13.6 27.3-29.1 40.5-40.9 39.8-35.5 85.4-64.1 134.3-84.5 18.8-7.8 41.2-15.3 55.1-18.3 1.3-0.3 79.6-15.6 173.8-34 94.3-18.4 171.6-33.5 171.8-33.5zm-303.7 294.5c-0.2 0-13.8 2.6-30.2 5.8-33 6.3-30.9 5.7-37 9.1-19.7 10.8-36.5 26.8-46.8 44.8-5.7 10-10.1 21.8-12.1 32.5-0.6 3.4-22.9 164.2-22.7 164.2 0.2 0.1 107.5-10.3 107.6-10.4 0.1-0.1 41.6-245.4 41.6-245.9 0-0.1-0.1-0.1-0.4-0.1z"/>
		<path id="Layer" fill-rule="evenodd" class="s1" d="m1774.4 1302.6c0.1 0-158.3 917.4-158.4 917.5-0.2 0.2-266.8 1.5-266.9 1.3-0.1-0.1 9-53.8 20.1-119.3 11.2-65.5 20.3-119.2 20.2-119.3-0.1-0.1-86.7 6.1-86.8 6.3 0 0-9.2 52-20.4 115.5-11.3 63.5-20.5 115.5-20.5 115.5-0.1 0.2-270.8 1.4-270.9 1.3 0-0.1 20-112 44.7-248.8 42.5-236.2 44.8-249.1 46.6-256.1 20.4-81.2 56-149.9 107-206.4 52.9-58.6 122-103.2 201-129.5 23.1-7.7 48-13.9 66.3-16.5 1.6-0.2 73.8-14.2 160.5-31 86.6-16.8 157.5-30.5 157.5-30.5zm-297.6 259.4c-0.4 0.1-49.9 7.8-56.6 8.9-4.9 0.8-8.8 2.3-15.6 6.1-25.4 14.2-43.5 38.3-51.1 67.7-0.9 3.4-29.1 141.3-28.9 141.4 0.1 0.1 111.5-10.1 111.5-10.2 0.1 0 9.3-47.8 20.5-106.3 11.3-58.4 20.5-106.5 20.6-106.9 0.1-0.6 0-0.7-0.3-0.7z"/>
		<path id="Layer" class="s1" d="m1070.6 1439.3c-17 3.2-82.6 15.7-145.6 27.7l-114.6 21.8-84.2 218.6-84.1 218.5v-2.5c-0.1-1.4-0.7-92.5-1.3-202.5-0.7-109.9-1.2-200-1.3-200-0.1-0.1-64.2 12.4-142.6 27.6l-142.5 27.6v1.2c0.2 2.3 67.4 642.5 67.5 642.7 0.2 0.1 329.6 2.1 329.7 1.9 0.2-0.1 350.7-788.4 350.7-788.6 0-0.1 0.8-0.3-31.7 6z"/>
		<path id="Layer" class="s1" d="m4447 2303.6c-38.6 0.5-70.1 0.9-70.1 1-0.1 0-1.9 10.4-4.1 23.2-2.2 12.7-4.1 23.4-4.2 23.8l-0.2 0.7h21.8l21.7 0.1-14.3 95.9c-7.9 52.8-14.3 96-14.2 96.1 0.1 0.2 59.6 2.2 59.7 2 0.1 0 6.3-43.5 13.9-96.5 7.6-53.1 13.8-96.8 13.9-97.1l0.1-0.5 21.1-0.1 21-0.1 3.2-24.5c1.8-13.4 3.2-24.6 3.2-24.8q0-0.3-1.2-0.3c-0.6 0.1-32.7 0.5-71.3 1.1z"/>
		<path id="Layer" class="s1" d="m4278.6 2307.6c-2.1 12-38.1 233.7-38.1 233.8 0.2 0 64.6 1.6 64.7 1.5 0 0 8.5-53 18.9-117.7 10.4-64.6 19-117.9 19.1-118.4l0.1-0.8h-32.3-32.2z"/>
		<path id="Layer" class="s1" d="m4092 2308.4c-41.3 0.4-77.8 0.8-81 0.8h-5.9l-15.4 112.3c-8.6 61.7-15.5 112.3-15.4 112.4 0.2 0.2 56.7 1.5 56.9 1.3 0-0.1 6.2-38.1 13.7-84.6 7.5-46.5 13.7-84.7 13.7-85 0.2-0.6 0.6-0.7 4.4-1.1 8.1-0.8 15.4 1.7 19.2 6.6 2 2.6 3.8 7.2 3.9 9.9 0 0.6-5.7 35.7-12.7 78.1-7 42.3-12.6 77-12.6 77 0.2 0.2 54.2 1.5 54.4 1.3 0 0 7-38.8 15.4-86.2l15.3-86.1 2-0.4c1.1-0.2 3.7-0.3 5.9-0.3 3.1 0 4.3 0.1 6.1 0.5 5.5 1.4 9.5 4.5 11.7 9 1 2 2 5.2 2 6.8 0 0.6-5.7 36.4-12.7 79.4-7 43-12.7 78.2-12.6 78.3 0.2 0.2 58 1.4 58.1 1.2 0.1 0 6.1-35.1 13.3-77.9 7.1-42.8 13.2-79.1 13.5-80.7 0.9-5.2 1.2-8.2 1.2-14.8-0.1-12.1-2-21.1-6.6-30.3-2.4-5-5-8.6-8.9-12.6-6.5-6.8-14.7-11.6-25.1-14.9l-2.9-0.9h-11.9c-6.5 0.1-45.7 0.4-87 0.9z"/>
		<path id="Layer" class="s1" d="m3570.1 2308.6c-0.2 1-34.6 214-34.6 214.5 0 0.3 0.2 0.4 1.1 0.4 0.6 0 13.9 0.2 29.7 0.5 15.7 0.3 28.6 0.4 28.7 0.4 0.1-0.1 25.5-162.3 25.5-162.9 0-0.5 7.9-0.2 11 0.5 10 2.1 16.1 7.2 18.4 15.1 0.3 1.3 0.6 2.8 0.6 3.4 0 0.6-5 33.5-11.1 73.1-6.1 39.6-11.1 72.1-11 72.1 0.1 0.1 54.4 1.6 54.4 1.5 0.2-0.1 25.7-149.3 26-151.6 0.4-3 0.4-12.3 0-15.6-2.5-22.5-13.5-38.8-32.8-48.6-1.7-0.9-4.1-2-5.3-2.5l-2.2-0.9h-49.1-49.1z"/>
		<path id="Layer" fill-rule="evenodd" class="s1" d="m3923.5 2309.3l9.3-0.1 2.3 0.9c13.7 5.5 23.5 16.6 27.1 30.7 1.5 5.7 1.5 5 0.2 25.6-1.2 19.3-1.3 20-2.8 25.1-3.5 11.9-10.2 21.8-18.4 27.2-2.5 1.7-2.4 1.6-2 1.7 0.2 0.1 1 0.6 1.9 1.2 4.8 3.2 8.1 8.1 9.3 13.7 0.8 3.9 0.9 3.5-6.8 52.2-3.9 24.9-7.2 45.4-7.2 45.5-0.2 0.1-47.7-1.2-47.8-1.3 0 0 0.4-3.3 1-7.2 10-66.5 9.3-61 9-63.1-0.5-3.5-2.3-6.2-5-7.8-0.9-0.5-2-0.7-9.2-1.6-4.6-0.5-8.3-1-8.3-0.9 0 0-2.9 18-6.4 40-3.5 22-6.5 40-6.5 40 0 0-10.7-0.2-23.8-0.6l-23.7-0.6 0.2-1c0.1-0.6 8.3-50.1 18.2-110.2l18.1-109.1 31-0.1c17-0.1 35.1-0.2 40.3-0.2zm-21.8 52.2h-11.3l-2.9 18.1-2.9 18.1h24.6l1.5-0.7c0.9-0.5 2-1.3 2.7-1.9 2.1-2.1 2.2-2.6 3.8-14.5 1.1-7.6 1.5-11.1 1.4-12-0.4-2.8-2.1-5.3-4.6-6.6-0.9-0.5-1.3-0.5-12.3-0.5z"/>
		<path id="Layer" class="s1" d="m3779.6 2310.3c-11.5 0.1-21 0.3-21 0.3-0.1 0.1-34.8 217.3-34.8 217.3 0.1 0.1 56 2 56.1 2 0 0 8.6-49.3 19-109.5 10.4-60.3 19-109.7 19-110 0.2-0.5-2-0.5-38.3-0.1z"/>
	</g>
</svg>